<svg width="3180pt" height="1196pt" xmlns="http://www.w3.org/2000/svg" xmlns:xlink="http://www.w3.org/1999/xlink" xmlns:ev="http://www.w3.org/2001/xml-events" style="overflow: hidden; "><g id="viewport-20250510181947343" class="svg-pan-zoom_viewport" transform="matrix(0.26588438492211197,0,0,0.26588438492211197,0.821616726560924,135.09061254734166)" style="transform: matrix(0.265884, 0, 0, 0.265884, 0.821617, 135.091);">
<g id="graph0" class="graph" transform="scale(1 1) rotate(0) translate(4 1192)">
<title>G</title>
<!-- Faculty -->
<g id="node1" class="node">
<title>Faculty</title>
<polygon fill="blue" stroke="none" points="2661,-684 2661,-744 3170,-744 3170,-684 2661,-684"></polygon>
<polygon fill="none" stroke="#29235c" points="2661,-684 2661,-744 3170,-744 3170,-684 2661,-684"></polygon>
<text text-anchor="start" x="2859.48" y="-705.2" font-family="Helvetica,sans-Serif" font-weight="bold" font-size="32.00" fill="#ffffff">Faculty</text>
<polygon fill="#e7e2dd" stroke="none" points="2661,-624 2661,-684 3170,-684 3170,-624 2661,-624"></polygon>
<polygon fill="none" stroke="#29235c" points="2661,-624 2661,-684 3170,-684 3170,-624 2661,-624"></polygon>
<text text-anchor="start" x="2672" y="-644.2" font-family="Helvetica,sans-Serif" font-size="32.00" fill="#29235c">faculty_id &#160;&#160;</text>
<polygon fill="#e7e2dd" stroke="none" points="2940.42,-634.6 2940.42,-673 3159,-673 3159,-634.6 2940.42,-634.6"></polygon>
<text text-anchor="start" x="3046.98" y="-645.2" font-family="Helvetica,sans-Serif" font-style="italic" font-size="32.00" fill="#29235c">INT &#160;&#160;pk</text>
<polygon fill="#ffffff" stroke="none" points="2661,-564 2661,-624 3170,-624 3170,-564 2661,-564"></polygon>
<polygon fill="none" stroke="#29235c" points="2661,-564 2661,-624 3170,-624 3170,-564 2661,-564"></polygon>
<text text-anchor="start" x="2672" y="-584.2" font-family="Helvetica,sans-Serif" font-size="32.00" fill="#29235c">faculty_name &#160;&#160;</text>
<polygon fill="#ffffff" stroke="none" points="2889,-574.6 2889,-613 3159.3,-613 3159.3,-574.6 2889,-574.6"></polygon>
<text text-anchor="start" x="2889" y="-585.2" font-family="Helvetica,sans-Serif" font-style="italic" font-size="32.00" fill="#29235c">VARCHAR(100) * &#160;</text>
<polygon fill="none" stroke="#29235c" stroke-width="2" points="2660,-563 2660,-745 3171,-745 3171,-563 2660,-563"></polygon>
</g>
<!-- Department -->
<g id="node2" class="node">
<title>Department</title>
<polygon fill="blue" stroke="none" points="2043,-684 2043,-744 2621,-744 2621,-684 2043,-684"></polygon>
<polygon fill="none" stroke="#29235c" points="2043,-684 2043,-744 2621,-744 2621,-684 2043,-684"></polygon>
<text text-anchor="start" x="2243.09" y="-705.2" font-family="Helvetica,sans-Serif" font-weight="bold" font-size="32.00" fill="#ffffff">Department</text>
<polygon fill="#e7e2dd" stroke="none" points="2043,-624 2043,-684 2621,-684 2621,-624 2043,-624"></polygon>
<polygon fill="none" stroke="#29235c" points="2043,-624 2043,-684 2621,-684 2621,-624 2043,-624"></polygon>
<text text-anchor="start" x="2054" y="-644.2" font-family="Helvetica,sans-Serif" font-size="32.00" fill="#29235c">department_id &#160;&#160;</text>
<polygon fill="#e7e2dd" stroke="none" points="2391.62,-634.6 2391.62,-673 2610,-673 2610,-634.6 2391.62,-634.6"></polygon>
<text text-anchor="start" x="2497.98" y="-645.2" font-family="Helvetica,sans-Serif" font-style="italic" font-size="32.00" fill="#29235c">INT &#160;&#160;pk</text>
<polygon fill="#ffffff" stroke="none" points="2043,-564 2043,-624 2621,-624 2621,-564 2043,-564"></polygon>
<polygon fill="none" stroke="#29235c" points="2043,-564 2043,-624 2621,-624 2621,-564 2043,-564"></polygon>
<text text-anchor="start" x="2054" y="-584.2" font-family="Helvetica,sans-Serif" font-size="32.00" fill="#29235c">department_name &#160;&#160;</text>
<polygon fill="#ffffff" stroke="none" points="2340.39,-574.6 2340.39,-613 2610.69,-613 2610.69,-574.6 2340.39,-574.6"></polygon>
<text text-anchor="start" x="2340.39" y="-585.2" font-family="Helvetica,sans-Serif" font-style="italic" font-size="32.00" fill="#29235c">VARCHAR(100) * &#160;</text>
<polygon fill="#e7e2dd" stroke="none" points="2043,-504 2043,-564 2621,-564 2621,-504 2043,-504"></polygon>
<polygon fill="none" stroke="#29235c" points="2043,-504 2043,-564 2621,-564 2621,-504 2043,-504"></polygon>
<text text-anchor="start" x="2054" y="-524.2" font-family="Helvetica,sans-Serif" font-size="32.00" fill="#29235c">faculty_id &#160;&#160;</text>
<polygon fill="#e7e2dd" stroke="none" points="2373.82,-514.6 2373.82,-553 2610,-553 2610,-514.6 2373.82,-514.6"></polygon>
<text text-anchor="start" x="2531.78" y="-525.2" font-family="Helvetica,sans-Serif" font-style="italic" font-size="32.00" fill="#29235c">INT &#160;&#160;</text>
<polygon fill="none" stroke="#29235c" stroke-width="2" points="2042,-503 2042,-745 2622,-745 2622,-503 2042,-503"></polygon>
</g>
<!-- Department&#45;&gt;Faculty -->
<!-- Department&#45;&gt;Faculty -->
<g id="edge2" class="edge">
<title>Department:e-&gt;Faculty:w</title>
<path fill="none" stroke="#94a3b8" d="M2622,-534C2673.29,-534 2614.93,-635.12 2648.23,-651.71"></path>
<polygon fill="#94a3b8" stroke="#94a3b8" points="2647.52,-655.14 2658.02,-653.7 2648.91,-648.28 2647.52,-655.14"></polygon>
</g>
<!-- Instructor -->
<g id="node3" class="node">
<title>Instructor</title>
<polygon fill="blue" stroke="none" points="1546,-586 1546,-646 2003,-646 2003,-586 1546,-586"></polygon>
<polygon fill="none" stroke="#29235c" points="1546,-586 1546,-646 2003,-646 2003,-586 1546,-586"></polygon>
<text text-anchor="start" x="1699.83" y="-607.2" font-family="Helvetica,sans-Serif" font-weight="bold" font-size="32.00" fill="#ffffff">Instructor</text>
<polygon fill="#e7e2dd" stroke="none" points="1546,-526 1546,-586 2003,-586 2003,-526 1546,-526"></polygon>
<polygon fill="none" stroke="#29235c" points="1546,-526 1546,-586 2003,-586 2003,-526 1546,-526"></polygon>
<text text-anchor="start" x="1557" y="-546.2" font-family="Helvetica,sans-Serif" font-size="32.00" fill="#29235c">instructor_id &#160;&#160;</text>
<polygon fill="#e7e2dd" stroke="none" points="1818.98,-536.6 1818.98,-575 1992,-575 1992,-536.6 1818.98,-536.6"></polygon>
<text text-anchor="start" x="1879.98" y="-547.2" font-family="Helvetica,sans-Serif" font-style="italic" font-size="32.00" fill="#29235c">INT &#160;&#160;pk</text>
<polygon fill="#ffffff" stroke="none" points="1546,-466 1546,-526 2003,-526 2003,-466 1546,-466"></polygon>
<polygon fill="none" stroke="#29235c" points="1546,-466 1546,-526 2003,-526 2003,-466 1546,-466"></polygon>
<text text-anchor="start" x="1557" y="-486.2" font-family="Helvetica,sans-Serif" font-size="32.00" fill="#29235c">full_name &#160;&#160;</text>
<polygon fill="#ffffff" stroke="none" points="1722.42,-476.6 1722.42,-515 1992.72,-515 1992.72,-476.6 1722.42,-476.6"></polygon>
<text text-anchor="start" x="1722.42" y="-487.2" font-family="Helvetica,sans-Serif" font-style="italic" font-size="32.00" fill="#29235c">VARCHAR(100) * &#160;</text>
<polygon fill="#e7e2dd" stroke="none" points="1546,-406 1546,-466 2003,-466 2003,-406 1546,-406"></polygon>
<polygon fill="none" stroke="#29235c" points="1546,-406 1546,-466 2003,-466 2003,-406 1546,-406"></polygon>
<text text-anchor="start" x="1557" y="-426.2" font-family="Helvetica,sans-Serif" font-size="32.00" fill="#29235c">email &#160;&#160;</text>
<polygon fill="#e7e2dd" stroke="none" points="1697.15,-416.6 1697.15,-455 1992,-455 1992,-416.6 1697.15,-416.6"></polygon>
<text text-anchor="start" x="1734.16" y="-427.2" font-family="Helvetica,sans-Serif" font-style="italic" font-size="32.00" fill="#29235c">VARCHAR(100) &#160;&#160;</text>
<polygon fill="#ffffff" stroke="none" points="1546,-346 1546,-406 2003,-406 2003,-346 1546,-346"></polygon>
<polygon fill="none" stroke="#29235c" points="1546,-346 1546,-406 2003,-406 2003,-346 1546,-346"></polygon>
<text text-anchor="start" x="1557" y="-366.2" font-family="Helvetica,sans-Serif" font-size="32.00" fill="#29235c">phone &#160;&#160;</text>
<polygon fill="#ffffff" stroke="none" points="1712.3,-356.6 1712.3,-395 1992,-395 1992,-356.6 1712.3,-356.6"></polygon>
<text text-anchor="start" x="1751.95" y="-367.2" font-family="Helvetica,sans-Serif" font-style="italic" font-size="32.00" fill="#29235c">VARCHAR(11) &#160;&#160;</text>
<polygon fill="#e7e2dd" stroke="none" points="1546,-286 1546,-346 2003,-346 2003,-286 1546,-286"></polygon>
<polygon fill="none" stroke="#29235c" points="1546,-286 1546,-346 2003,-346 2003,-286 1546,-286"></polygon>
<text text-anchor="start" x="1557" y="-306.2" font-family="Helvetica,sans-Serif" font-size="32.00" fill="#29235c">department_id &#160;&#160;</text>
<polygon fill="#e7e2dd" stroke="none" points="1851.02,-296.6 1851.02,-335 1992,-335 1992,-296.6 1851.02,-296.6"></polygon>
<text text-anchor="start" x="1913.78" y="-307.2" font-family="Helvetica,sans-Serif" font-style="italic" font-size="32.00" fill="#29235c">INT &#160;&#160;</text>
<polygon fill="none" stroke="#29235c" stroke-width="2" points="1545,-285 1545,-647 2004,-647 2004,-285 1545,-285"></polygon>
</g>
<!-- Instructor&#45;&gt;Department -->
<!-- Instructor&#45;&gt;Department -->
<g id="edge4" class="edge">
<title>Instructor:e-&gt;Department:w</title>
<path fill="none" stroke="#94a3b8" d="M2004.5,-316C2075.94,-316 1978.29,-618.04 2031.24,-651.08"></path>
<polygon fill="#94a3b8" stroke="#94a3b8" points="2029.97,-654.36 2040.54,-653.6 2031.81,-647.61 2029.97,-654.36"></polygon>
</g>
<!-- Course -->
<g id="node4" class="node">
<title>Course</title>
<polygon fill="blue" stroke="none" points="1011,-684 1011,-744 1506,-744 1506,-684 1011,-684"></polygon>
<polygon fill="none" stroke="#29235c" points="1011,-684 1011,-744 1506,-744 1506,-684 1011,-684"></polygon>
<text text-anchor="start" x="1203.38" y="-705.2" font-family="Helvetica,sans-Serif" font-weight="bold" font-size="32.00" fill="#ffffff">Course</text>
<polygon fill="#e7e2dd" stroke="none" points="1011,-624 1011,-684 1506,-684 1506,-624 1011,-624"></polygon>
<polygon fill="none" stroke="#29235c" points="1011,-624 1011,-684 1506,-684 1506,-624 1011,-624"></polygon>
<text text-anchor="start" x="1022" y="-644.2" font-family="Helvetica,sans-Serif" font-size="32.00" fill="#29235c">course_id &#160;&#160;</text>
<polygon fill="#e7e2dd" stroke="none" points="1285.2,-634.6 1285.2,-673 1495,-673 1495,-634.6 1285.2,-634.6"></polygon>
<text text-anchor="start" x="1382.98" y="-645.2" font-family="Helvetica,sans-Serif" font-style="italic" font-size="32.00" fill="#29235c">INT &#160;&#160;pk</text>
<polygon fill="#ffffff" stroke="none" points="1011,-564 1011,-624 1506,-624 1506,-564 1011,-564"></polygon>
<polygon fill="none" stroke="#29235c" points="1011,-564 1011,-624 1506,-624 1506,-564 1011,-564"></polygon>
<text text-anchor="start" x="1022" y="-584.2" font-family="Helvetica,sans-Serif" font-size="32.00" fill="#29235c">course_name &#160;&#160;</text>
<polygon fill="#ffffff" stroke="none" points="1242.56,-574.6 1242.56,-613 1495.06,-613 1495.06,-574.6 1242.56,-574.6"></polygon>
<text text-anchor="start" x="1242.56" y="-585.2" font-family="Helvetica,sans-Serif" font-style="italic" font-size="32.00" fill="#29235c">VARCHAR(21) * &#160;</text>
<polygon fill="#e7e2dd" stroke="none" points="1011,-504 1011,-564 1506,-564 1506,-504 1011,-504"></polygon>
<polygon fill="none" stroke="#29235c" points="1011,-504 1011,-564 1506,-564 1506,-504 1011,-504"></polygon>
<text text-anchor="start" x="1022" y="-524.2" font-family="Helvetica,sans-Serif" font-size="32.00" fill="#29235c">credit_hours &#160;&#160;</text>
<polygon fill="#e7e2dd" stroke="none" points="1320.77,-514.6 1320.77,-553 1495,-553 1495,-514.6 1320.77,-514.6"></polygon>
<text text-anchor="start" x="1416.78" y="-525.2" font-family="Helvetica,sans-Serif" font-style="italic" font-size="32.00" fill="#29235c">INT &#160;&#160;</text>
<polygon fill="#ffffff" stroke="none" points="1011,-444 1011,-504 1506,-504 1506,-444 1011,-444"></polygon>
<polygon fill="none" stroke="#29235c" points="1011,-444 1011,-504 1506,-504 1506,-444 1011,-444"></polygon>
<text text-anchor="start" x="1022" y="-464.2" font-family="Helvetica,sans-Serif" font-size="32.00" fill="#29235c">department_id &#160;&#160;</text>
<polygon fill="#ffffff" stroke="none" points="1335.02,-454.6 1335.02,-493 1495,-493 1495,-454.6 1335.02,-454.6"></polygon>
<text text-anchor="start" x="1416.78" y="-465.2" font-family="Helvetica,sans-Serif" font-style="italic" font-size="32.00" fill="#29235c">INT &#160;&#160;</text>
<polygon fill="#e7e2dd" stroke="none" points="1011,-384 1011,-444 1506,-444 1506,-384 1011,-384"></polygon>
<polygon fill="none" stroke="#29235c" points="1011,-384 1011,-444 1506,-444 1506,-384 1011,-384"></polygon>
<text text-anchor="start" x="1022" y="-404.2" font-family="Helvetica,sans-Serif" font-size="32.00" fill="#29235c">instructor_id &#160;&#160;</text>
<polygon fill="#e7e2dd" stroke="none" points="1319.88,-394.6 1319.88,-433 1495,-433 1495,-394.6 1319.88,-394.6"></polygon>
<text text-anchor="start" x="1416.78" y="-405.2" font-family="Helvetica,sans-Serif" font-style="italic" font-size="32.00" fill="#29235c">INT &#160;&#160;</text>
<polygon fill="none" stroke="#29235c" stroke-width="2" points="1010,-383 1010,-745 1507,-745 1507,-383 1010,-383"></polygon>
</g>
<!-- Course&#45;&gt;Department -->
<!-- Course&#45;&gt;Department -->
<g id="edge6" class="edge">
<title>Course:e-&gt;Department:w</title>
<path fill="none" stroke="#94a3b8" d="M1507.5,-474C1590.44,-474 1479.88,-604.4 1544,-657 1623.21,-721.97 1902.64,-661.14 2005,-657 2016.98,-656.52 2022.37,-655.15 2030.76,-654.44"></path>
<polygon fill="#94a3b8" stroke="#94a3b8" points="2030.63,-657.95 2040.49,-654.06 2030.36,-650.95 2030.63,-657.95"></polygon>
</g>
<!-- Course&#45;&gt;Instructor -->
<!-- Course&#45;&gt;Instructor -->
<g id="edge8" class="edge">
<title>Course:e-&gt;Instructor:w</title>
<path fill="none" stroke="#94a3b8" d="M1507.5,-414C1568.26,-414 1491.31,-537.25 1533.25,-554.1"></path>
<polygon fill="#94a3b8" stroke="#94a3b8" points="1532.56,-557.53 1543.01,-555.75 1533.73,-550.63 1532.56,-557.53"></polygon>
</g>
<!-- Student -->
<g id="node5" class="node">
<title>Student</title>
<polygon fill="blue" stroke="none" points="1030,-1126 1030,-1186 1487,-1186 1487,-1126 1030,-1126"></polygon>
<polygon fill="none" stroke="#29235c" points="1030,-1126 1030,-1186 1487,-1186 1487,-1126 1030,-1126"></polygon>
<text text-anchor="start" x="1198.95" y="-1147.2" font-family="Helvetica,sans-Serif" font-weight="bold" font-size="32.00" fill="#ffffff">Student</text>
<polygon fill="#e7e2dd" stroke="none" points="1030,-1066 1030,-1126 1487,-1126 1487,-1066 1030,-1066"></polygon>
<polygon fill="none" stroke="#29235c" points="1030,-1066 1030,-1126 1487,-1126 1487,-1066 1030,-1066"></polygon>
<text text-anchor="start" x="1041" y="-1086.2" font-family="Helvetica,sans-Serif" font-size="32.00" fill="#29235c">student_id &#160;&#160;</text>
<polygon fill="#e7e2dd" stroke="none" points="1289.66,-1076.6 1289.66,-1115 1476,-1115 1476,-1076.6 1289.66,-1076.6"></polygon>
<text text-anchor="start" x="1363.98" y="-1087.2" font-family="Helvetica,sans-Serif" font-style="italic" font-size="32.00" fill="#29235c">INT &#160;&#160;pk</text>
<polygon fill="#ffffff" stroke="none" points="1030,-1006 1030,-1066 1487,-1066 1487,-1006 1030,-1006"></polygon>
<polygon fill="none" stroke="#29235c" points="1030,-1006 1030,-1066 1487,-1066 1487,-1006 1030,-1006"></polygon>
<text text-anchor="start" x="1041" y="-1026.2" font-family="Helvetica,sans-Serif" font-size="32.00" fill="#29235c">full_name &#160;&#160;</text>
<polygon fill="#ffffff" stroke="none" points="1206.42,-1016.6 1206.42,-1055 1476.72,-1055 1476.72,-1016.6 1206.42,-1016.6"></polygon>
<text text-anchor="start" x="1206.42" y="-1027.2" font-family="Helvetica,sans-Serif" font-style="italic" font-size="32.00" fill="#29235c">VARCHAR(100) * &#160;</text>
<polygon fill="#e7e2dd" stroke="none" points="1030,-946 1030,-1006 1487,-1006 1487,-946 1030,-946"></polygon>
<polygon fill="none" stroke="#29235c" points="1030,-946 1030,-1006 1487,-1006 1487,-946 1030,-946"></polygon>
<text text-anchor="start" x="1041" y="-966.2" font-family="Helvetica,sans-Serif" font-size="32.00" fill="#29235c">email &#160;&#160;</text>
<polygon fill="#e7e2dd" stroke="none" points="1181.15,-956.6 1181.15,-995 1476,-995 1476,-956.6 1181.15,-956.6"></polygon>
<text text-anchor="start" x="1218.16" y="-967.2" font-family="Helvetica,sans-Serif" font-style="italic" font-size="32.00" fill="#29235c">VARCHAR(100) &#160;&#160;</text>
<polygon fill="#ffffff" stroke="none" points="1030,-886 1030,-946 1487,-946 1487,-886 1030,-886"></polygon>
<polygon fill="none" stroke="#29235c" points="1030,-886 1030,-946 1487,-946 1487,-886 1030,-886"></polygon>
<text text-anchor="start" x="1041" y="-906.2" font-family="Helvetica,sans-Serif" font-size="32.00" fill="#29235c">gender &#160;&#160;</text>
<polygon fill="#ffffff" stroke="none" points="1210.53,-896.6 1210.53,-935 1476,-935 1476,-896.6 1210.53,-896.6"></polygon>
<text text-anchor="start" x="1253.75" y="-907.2" font-family="Helvetica,sans-Serif" font-style="italic" font-size="32.00" fill="#29235c">VARCHAR(6) &#160;&#160;</text>
<polygon fill="#e7e2dd" stroke="none" points="1030,-826 1030,-886 1487,-886 1487,-826 1030,-826"></polygon>
<polygon fill="none" stroke="#29235c" points="1030,-826 1030,-886 1487,-886 1487,-826 1030,-826"></polygon>
<text text-anchor="start" x="1041" y="-846.2" font-family="Helvetica,sans-Serif" font-size="32.00" fill="#29235c">date_of_birth &#160;&#160;</text>
<polygon fill="#e7e2dd" stroke="none" points="1309.23,-836.6 1309.23,-875 1476,-875 1476,-836.6 1309.23,-836.6"></polygon>
<text text-anchor="start" x="1363.98" y="-847.2" font-family="Helvetica,sans-Serif" font-style="italic" font-size="32.00" fill="#29235c">DATE &#160;&#160;</text>
<polygon fill="#ffffff" stroke="none" points="1030,-766 1030,-826 1487,-826 1487,-766 1030,-766"></polygon>
<polygon fill="none" stroke="#29235c" points="1030,-766 1030,-826 1487,-826 1487,-766 1030,-766"></polygon>
<text text-anchor="start" x="1041" y="-786.2" font-family="Helvetica,sans-Serif" font-size="32.00" fill="#29235c">department_id &#160;&#160;</text>
<polygon fill="#ffffff" stroke="none" points="1335.02,-776.6 1335.02,-815 1476,-815 1476,-776.6 1335.02,-776.6"></polygon>
<text text-anchor="start" x="1397.78" y="-787.2" font-family="Helvetica,sans-Serif" font-style="italic" font-size="32.00" fill="#29235c">INT &#160;&#160;</text>
<polygon fill="none" stroke="#29235c" stroke-width="2" points="1029,-765 1029,-1187 1488,-1187 1488,-765 1029,-765"></polygon>
</g>
<!-- Student&#45;&gt;Department -->
<!-- Student&#45;&gt;Department -->
<g id="edge10" class="edge">
<title>Student:e-&gt;Department:w</title>
<path fill="none" stroke="#94a3b8" d="M1488.5,-796C1513.42,-796 1519.31,-791.39 1544,-788 1646.35,-773.96 1920.82,-787.88 2005,-728 2031.22,-709.35 2011.73,-666.68 2031.08,-656.31"></path>
<polygon fill="#94a3b8" stroke="#94a3b8" points="2031.46,-659.8 2040.52,-654.31 2030.01,-652.95 2031.46,-659.8"></polygon>
</g>
<!-- Enrollment -->
<g id="node6" class="node">
<title>Enrollment</title>
<polygon fill="blue" stroke="none" points="522.5,-804 522.5,-864 942.5,-864 942.5,-804 522.5,-804"></polygon>
<polygon fill="none" stroke="#29235c" points="522.5,-804 522.5,-864 942.5,-864 942.5,-804 522.5,-804"></polygon>
<text text-anchor="start" x="648.94" y="-825.2" font-family="Helvetica,sans-Serif" font-weight="bold" font-size="32.00" fill="#ffffff">Enrollment</text>
<polygon fill="#e7e2dd" stroke="none" points="522.5,-744 522.5,-804 942.5,-804 942.5,-744 522.5,-744"></polygon>
<polygon fill="none" stroke="#29235c" points="522.5,-744 522.5,-804 942.5,-804 942.5,-744 522.5,-744"></polygon>
<text text-anchor="start" x="533.5" y="-764.2" font-family="Helvetica,sans-Serif" font-size="32.00" fill="#29235c">enrollment_id &#160;&#160;</text>
<polygon fill="#e7e2dd" stroke="none" points="785.88,-754.6 785.88,-793 931.5,-793 931.5,-754.6 785.88,-754.6"></polygon>
<text text-anchor="start" x="819.48" y="-765.2" font-family="Helvetica,sans-Serif" font-style="italic" font-size="32.00" fill="#29235c">INT &#160;&#160;pk</text>
<polygon fill="#ffffff" stroke="none" points="522.5,-684 522.5,-744 942.5,-744 942.5,-684 522.5,-684"></polygon>
<polygon fill="none" stroke="#29235c" points="522.5,-684 522.5,-744 942.5,-744 942.5,-684 522.5,-684"></polygon>
<text text-anchor="start" x="533.5" y="-704.2" font-family="Helvetica,sans-Serif" font-size="32.00" fill="#29235c">student_id &#160;&#160;</text>
<polygon fill="#ffffff" stroke="none" points="780.56,-694.6 780.56,-733 931.5,-733 931.5,-694.6 780.56,-694.6"></polygon>
<text text-anchor="start" x="853.28" y="-705.2" font-family="Helvetica,sans-Serif" font-style="italic" font-size="32.00" fill="#29235c">INT &#160;&#160;</text>
<polygon fill="#e7e2dd" stroke="none" points="522.5,-624 522.5,-684 942.5,-684 942.5,-624 522.5,-624"></polygon>
<polygon fill="none" stroke="#29235c" points="522.5,-624 522.5,-684 942.5,-684 942.5,-624 522.5,-624"></polygon>
<text text-anchor="start" x="533.5" y="-644.2" font-family="Helvetica,sans-Serif" font-size="32.00" fill="#29235c">course_id &#160;&#160;</text>
<polygon fill="#e7e2dd" stroke="none" points="776.1,-634.6 776.1,-673 931.5,-673 931.5,-634.6 776.1,-634.6"></polygon>
<text text-anchor="start" x="853.28" y="-645.2" font-family="Helvetica,sans-Serif" font-style="italic" font-size="32.00" fill="#29235c">INT &#160;&#160;</text>
<polygon fill="#ffffff" stroke="none" points="522.5,-564 522.5,-624 942.5,-624 942.5,-564 522.5,-564"></polygon>
<polygon fill="none" stroke="#29235c" points="522.5,-564 522.5,-624 942.5,-624 942.5,-564 522.5,-564"></polygon>
<text text-anchor="start" x="533.5" y="-584.2" font-family="Helvetica,sans-Serif" font-size="32.00" fill="#29235c">enrollment_date &#160;&#160;</text>
<polygon fill="#ffffff" stroke="none" points="804.57,-574.6 804.57,-613 931.5,-613 931.5,-574.6 804.57,-574.6"></polygon>
<text text-anchor="start" x="819.48" y="-585.2" font-family="Helvetica,sans-Serif" font-style="italic" font-size="32.00" fill="#29235c">DATE &#160;&#160;</text>
<polygon fill="#e7e2dd" stroke="none" points="522.5,-504 522.5,-564 942.5,-564 942.5,-504 522.5,-504"></polygon>
<polygon fill="none" stroke="#29235c" points="522.5,-504 522.5,-564 942.5,-564 942.5,-504 522.5,-504"></polygon>
<text text-anchor="start" x="533.5" y="-524.2" font-family="Helvetica,sans-Serif" font-size="32.00" fill="#29235c">semester &#160;&#160;</text>
<polygon fill="#e7e2dd" stroke="none" points="691.77,-514.6 691.77,-553 931.81,-553 931.81,-514.6 691.77,-514.6"></polygon>
<text text-anchor="start" x="691.77" y="-525.2" font-family="Helvetica,sans-Serif" font-style="italic" font-size="32.00" fill="#29235c">VARCHAR(20) &#160;&#160;</text>
<polygon fill="none" stroke="#29235c" stroke-width="2" points="521.5,-503 521.5,-865 943.5,-865 943.5,-503 521.5,-503"></polygon>
</g>
<!-- Enrollment&#45;&gt;Course -->
<!-- Enrollment&#45;&gt;Course -->
<g id="edge14" class="edge">
<title>Enrollment:e-&gt;Course:w</title>
<path fill="none" stroke="#94a3b8" d="M943.5,-654C968.59,-654 977.59,-654 998.03,-654"></path>
<polygon fill="#94a3b8" stroke="#94a3b8" points="997.99,-657.5 1007.99,-654 997.99,-650.5 997.99,-657.5"></polygon>
</g>
<!-- Enrollment&#45;&gt;Student -->
<!-- Enrollment&#45;&gt;Student -->
<g id="edge12" class="edge">
<title>Enrollment:e-&gt;Student:w</title>
<path fill="none" stroke="#94a3b8" d="M943.5,-714C1026.39,-714 949.49,-1061.03 1017.39,-1093.56"></path>
<polygon fill="#94a3b8" stroke="#94a3b8" points="1016.5,-1096.95 1027.02,-1095.68 1018.01,-1090.11 1016.5,-1096.95"></polygon>
</g>
<!-- Grades -->
<g id="node7" class="node">
<title>Grades</title>
<polygon fill="blue" stroke="none" points="2,-804 2,-864 454,-864 454,-804 2,-804"></polygon>
<polygon fill="none" stroke="#29235c" points="2,-804 2,-864 454,-864 454,-804 2,-804"></polygon>
<text text-anchor="start" x="172.86" y="-825.2" font-family="Helvetica,sans-Serif" font-weight="bold" font-size="32.00" fill="#ffffff">Grades</text>
<polygon fill="#e7e2dd" stroke="none" points="2,-744 2,-804 454,-804 454,-744 2,-744"></polygon>
<polygon fill="none" stroke="#29235c" points="2,-744 2,-804 454,-804 454,-744 2,-744"></polygon>
<text text-anchor="start" x="13" y="-764.2" font-family="Helvetica,sans-Serif" font-size="32.00" fill="#29235c">grade_id &#160;&#160;</text>
<polygon fill="#e7e2dd" stroke="none" points="247.6,-754.6 247.6,-793 443,-793 443,-754.6 247.6,-754.6"></polygon>
<text text-anchor="start" x="330.98" y="-765.2" font-family="Helvetica,sans-Serif" font-style="italic" font-size="32.00" fill="#29235c">INT &#160;&#160;pk</text>
<polygon fill="#ffffff" stroke="none" points="2,-684 2,-744 454,-744 454,-684 2,-684"></polygon>
<polygon fill="none" stroke="#29235c" points="2,-684 2,-744 454,-744 454,-684 2,-684"></polygon>
<text text-anchor="start" x="13" y="-704.2" font-family="Helvetica,sans-Serif" font-size="32.00" fill="#29235c">enrollment_id &#160;&#160;</text>
<polygon fill="#ffffff" stroke="none" points="298.28,-694.6 298.28,-733 443,-733 443,-694.6 298.28,-694.6"></polygon>
<text text-anchor="start" x="364.78" y="-705.2" font-family="Helvetica,sans-Serif" font-style="italic" font-size="32.00" fill="#29235c">INT &#160;&#160;</text>
<polygon fill="#e7e2dd" stroke="none" points="2,-624 2,-684 454,-684 454,-624 2,-624"></polygon>
<polygon fill="none" stroke="#29235c" points="2,-624 2,-684 454,-684 454,-624 2,-624"></polygon>
<text text-anchor="start" x="13" y="-644.2" font-family="Helvetica,sans-Serif" font-size="32.00" fill="#29235c">grade &#160;&#160;</text>
<polygon fill="#e7e2dd" stroke="none" points="204.03,-634.6 204.03,-673 443,-673 443,-634.6 204.03,-634.6"></polygon>
<text text-anchor="start" x="286.55" y="-645.2" font-family="Helvetica,sans-Serif" font-style="italic" font-size="32.00" fill="#29235c">CHAR(2) &#160;&#160;</text>
<polygon fill="#ffffff" stroke="none" points="2,-564 2,-624 454,-624 454,-564 2,-564"></polygon>
<polygon fill="none" stroke="#29235c" points="2,-564 2,-624 454,-624 454,-564 2,-564"></polygon>
<text text-anchor="start" x="13" y="-584.2" font-family="Helvetica,sans-Serif" font-size="32.00" fill="#29235c">grade_point &#160;&#160;</text>
<polygon fill="#ffffff" stroke="none" points="208.7,-574.6 208.7,-613 443.42,-613 443.42,-574.6 208.7,-574.6"></polygon>
<text text-anchor="start" x="208.7" y="-585.2" font-family="Helvetica,sans-Serif" font-style="italic" font-size="32.00" fill="#29235c">DECIMAL(3,2) &#160;&#160;</text>
<polygon fill="none" stroke="#29235c" stroke-width="2" points="1,-563 1,-865 455,-865 455,-563 1,-563"></polygon>
</g>
<!-- Grades&#45;&gt;Enrollment -->
<!-- Grades&#45;&gt;Enrollment -->
<g id="edge16" class="edge">
<title>Grades:e-&gt;Enrollment:w</title>
<path fill="none" stroke="#94a3b8" d="M455,-714C490.45,-714 483.93,-761.59 510.2,-772"></path>
<polygon fill="#94a3b8" stroke="#94a3b8" points="509.55,-775.44 520.01,-773.74 510.77,-768.55 509.55,-775.44"></polygon>
</g>
<!-- StudentGPA -->
<g id="node8" class="node">
<title>StudentGPA</title>
<polygon fill="blue" stroke="none" points="522.5,-1126 522.5,-1186 942.5,-1186 942.5,-1126 522.5,-1126"></polygon>
<polygon fill="none" stroke="#29235c" points="522.5,-1126 522.5,-1186 942.5,-1186 942.5,-1126 522.5,-1126"></polygon>
<text text-anchor="start" x="638.28" y="-1147.2" font-family="Helvetica,sans-Serif" font-weight="bold" font-size="32.00" fill="#ffffff">StudentGPA</text>
<polygon fill="#e7e2dd" stroke="none" points="522.5,-1066 522.5,-1126 942.5,-1126 942.5,-1066 522.5,-1066"></polygon>
<polygon fill="none" stroke="#29235c" points="522.5,-1066 522.5,-1126 942.5,-1126 942.5,-1066 522.5,-1066"></polygon>
<text text-anchor="start" x="533.5" y="-1086.2" font-family="Helvetica,sans-Serif" font-size="32.00" fill="#29235c">gpa_id &#160;&#160;</text>
<polygon fill="#e7e2dd" stroke="none" points="737.88,-1076.6 737.88,-1115 931.5,-1115 931.5,-1076.6 737.88,-1076.6"></polygon>
<text text-anchor="start" x="819.48" y="-1087.2" font-family="Helvetica,sans-Serif" font-style="italic" font-size="32.00" fill="#29235c">INT &#160;&#160;pk</text>
<polygon fill="#ffffff" stroke="none" points="522.5,-1006 522.5,-1066 942.5,-1066 942.5,-1006 522.5,-1006"></polygon>
<polygon fill="none" stroke="#29235c" points="522.5,-1006 522.5,-1066 942.5,-1066 942.5,-1006 522.5,-1006"></polygon>
<text text-anchor="start" x="533.5" y="-1026.2" font-family="Helvetica,sans-Serif" font-size="32.00" fill="#29235c">student_id &#160;&#160;</text>
<polygon fill="#ffffff" stroke="none" points="780.56,-1016.6 780.56,-1055 931.5,-1055 931.5,-1016.6 780.56,-1016.6"></polygon>
<text text-anchor="start" x="853.28" y="-1027.2" font-family="Helvetica,sans-Serif" font-style="italic" font-size="32.00" fill="#29235c">INT &#160;&#160;</text>
<polygon fill="#e7e2dd" stroke="none" points="522.5,-946 522.5,-1006 942.5,-1006 942.5,-946 522.5,-946"></polygon>
<polygon fill="none" stroke="#29235c" points="522.5,-946 522.5,-1006 942.5,-1006 942.5,-946 522.5,-946"></polygon>
<text text-anchor="start" x="533.5" y="-966.2" font-family="Helvetica,sans-Serif" font-size="32.00" fill="#29235c">semester &#160;&#160;</text>
<polygon fill="#e7e2dd" stroke="none" points="691.77,-956.6 691.77,-995 931.81,-995 931.81,-956.6 691.77,-956.6"></polygon>
<text text-anchor="start" x="691.77" y="-967.2" font-family="Helvetica,sans-Serif" font-style="italic" font-size="32.00" fill="#29235c">VARCHAR(20) &#160;&#160;</text>
<polygon fill="#ffffff" stroke="none" points="522.5,-886 522.5,-946 942.5,-946 942.5,-886 522.5,-886"></polygon>
<polygon fill="none" stroke="#29235c" points="522.5,-886 522.5,-946 942.5,-946 942.5,-886 522.5,-886"></polygon>
<text text-anchor="start" x="533.5" y="-906.2" font-family="Helvetica,sans-Serif" font-size="32.00" fill="#29235c">gpa &#160;&#160;</text>
<polygon fill="#ffffff" stroke="none" points="655.17,-896.6 655.17,-935 931.5,-935 931.5,-896.6 655.17,-896.6"></polygon>
<text text-anchor="start" x="696.78" y="-907.2" font-family="Helvetica,sans-Serif" font-style="italic" font-size="32.00" fill="#29235c">DECIMAL(3,2) &#160;&#160;</text>
<polygon fill="none" stroke="#29235c" stroke-width="2" points="521.5,-885 521.5,-1187 943.5,-1187 943.5,-885 521.5,-885"></polygon>
</g>
<!-- StudentGPA&#45;&gt;Student -->
<!-- StudentGPA&#45;&gt;Student -->
<g id="edge18" class="edge">
<title>StudentGPA:e-&gt;Student:w</title>
<path fill="none" stroke="#94a3b8" d="M943.5,-1036C985.59,-1036 983.17,-1085.7 1017.26,-1094.63"></path>
<polygon fill="#94a3b8" stroke="#94a3b8" points="1016.65,-1098.09 1027,-1095.82 1017.49,-1091.14 1016.65,-1098.09"></polygon>
</g>
<!-- Schedule -->
<g id="node9" class="node">
<title>Schedule</title>
<polygon fill="blue" stroke="none" points="494,-422 494,-482 971,-482 971,-422 494,-422"></polygon>
<polygon fill="none" stroke="#29235c" points="494,-422 494,-482 971,-482 971,-422 494,-422"></polygon>
<text text-anchor="start" x="661.37" y="-443.2" font-family="Helvetica,sans-Serif" font-weight="bold" font-size="32.00" fill="#ffffff">Schedule</text>
<polygon fill="#e7e2dd" stroke="none" points="494,-362 494,-422 971,-422 971,-362 494,-362"></polygon>
<polygon fill="none" stroke="#29235c" points="494,-362 494,-422 971,-422 971,-362 494,-362"></polygon>
<text text-anchor="start" x="505" y="-382.2" font-family="Helvetica,sans-Serif" font-size="32.00" fill="#29235c">schedule_id &#160;&#160;</text>
<polygon fill="#e7e2dd" stroke="none" points="775.23,-372.6 775.23,-411 960,-411 960,-372.6 775.23,-372.6"></polygon>
<text text-anchor="start" x="847.98" y="-383.2" font-family="Helvetica,sans-Serif" font-style="italic" font-size="32.00" fill="#29235c">INT &#160;&#160;pk</text>
<polygon fill="#ffffff" stroke="none" points="494,-302 494,-362 971,-362 971,-302 494,-302"></polygon>
<polygon fill="none" stroke="#29235c" points="494,-302 494,-362 971,-362 971,-302 494,-302"></polygon>
<text text-anchor="start" x="505" y="-322.2" font-family="Helvetica,sans-Serif" font-size="32.00" fill="#29235c">course_id &#160;&#160;</text>
<polygon fill="#ffffff" stroke="none" points="776.1,-312.6 776.1,-351 960,-351 960,-312.6 776.1,-312.6"></polygon>
<text text-anchor="start" x="881.78" y="-323.2" font-family="Helvetica,sans-Serif" font-style="italic" font-size="32.00" fill="#29235c">INT &#160;&#160;</text>
<polygon fill="#e7e2dd" stroke="none" points="494,-242 494,-302 971,-302 971,-242 494,-242"></polygon>
<polygon fill="none" stroke="#29235c" points="494,-242 494,-302 971,-302 971,-242 494,-242"></polygon>
<text text-anchor="start" x="505" y="-262.2" font-family="Helvetica,sans-Serif" font-size="32.00" fill="#29235c">instructor_id &#160;&#160;</text>
<polygon fill="#e7e2dd" stroke="none" points="793.88,-252.6 793.88,-291 960,-291 960,-252.6 793.88,-252.6"></polygon>
<text text-anchor="start" x="881.78" y="-263.2" font-family="Helvetica,sans-Serif" font-style="italic" font-size="32.00" fill="#29235c">INT &#160;&#160;</text>
<polygon fill="#ffffff" stroke="none" points="494,-182 494,-242 971,-242 971,-182 494,-182"></polygon>
<polygon fill="none" stroke="#29235c" points="494,-182 494,-242 971,-242 971,-182 494,-182"></polygon>
<text text-anchor="start" x="505" y="-202.2" font-family="Helvetica,sans-Serif" font-size="32.00" fill="#29235c">room &#160;&#160;</text>
<polygon fill="#ffffff" stroke="none" points="662.27,-192.6 662.27,-231 960,-231 960,-192.6 662.27,-192.6"></polygon>
<text text-anchor="start" x="719.95" y="-203.2" font-family="Helvetica,sans-Serif" font-style="italic" font-size="32.00" fill="#29235c">VARCHAR(20) &#160;&#160;</text>
<polygon fill="#e7e2dd" stroke="none" points="494,-122 494,-182 971,-182 971,-122 494,-122"></polygon>
<polygon fill="none" stroke="#29235c" points="494,-122 494,-182 971,-182 971,-122 494,-122"></polygon>
<text text-anchor="start" x="505" y="-142.2" font-family="Helvetica,sans-Serif" font-size="32.00" fill="#29235c">day_of_week &#160;&#160;</text>
<polygon fill="#e7e2dd" stroke="none" points="720.25,-132.6 720.25,-171 960.3,-171 960.3,-132.6 720.25,-132.6"></polygon>
<text text-anchor="start" x="720.25" y="-143.2" font-family="Helvetica,sans-Serif" font-style="italic" font-size="32.00" fill="#29235c">VARCHAR(10) &#160;&#160;</text>
<polygon fill="#ffffff" stroke="none" points="494,-62 494,-122 971,-122 971,-62 494,-62"></polygon>
<polygon fill="none" stroke="#29235c" points="494,-62 494,-122 971,-122 971,-62 494,-62"></polygon>
<text text-anchor="start" x="505" y="-82.2" font-family="Helvetica,sans-Serif" font-size="32.00" fill="#29235c">start_time &#160;&#160;</text>
<polygon fill="#ffffff" stroke="none" points="764.52,-72.6 764.52,-111 960,-111 960,-72.6 764.52,-72.6"></polygon>
<text text-anchor="start" x="856.89" y="-83.2" font-family="Helvetica,sans-Serif" font-style="italic" font-size="32.00" fill="#29235c">TIME &#160;&#160;</text>
<polygon fill="#e7e2dd" stroke="none" points="494,-2 494,-62 971,-62 971,-2 494,-2"></polygon>
<polygon fill="none" stroke="#29235c" points="494,-2 494,-62 971,-62 971,-2 494,-2"></polygon>
<text text-anchor="start" x="505" y="-22.2" font-family="Helvetica,sans-Serif" font-size="32.00" fill="#29235c">end_time &#160;&#160;</text>
<polygon fill="#e7e2dd" stroke="none" points="760.1,-12.6 760.1,-51 960,-51 960,-12.6 760.1,-12.6"></polygon>
<text text-anchor="start" x="856.89" y="-23.2" font-family="Helvetica,sans-Serif" font-style="italic" font-size="32.00" fill="#29235c">TIME &#160;&#160;</text>
<polygon fill="none" stroke="#29235c" stroke-width="2" points="493,-1 493,-483 972,-483 972,-1 493,-1"></polygon>
</g>
<!-- Schedule&#45;&gt;Instructor -->
<!-- Schedule&#45;&gt;Instructor -->
<g id="edge22" class="edge">
<title>Schedule:e-&gt;Instructor:w</title>
<path fill="none" stroke="#94a3b8" d="M972.5,-272C1211.41,-272 1333.64,-155.66 1508,-319 1543.85,-352.58 1499.33,-525.66 1533.91,-552.5"></path>
<polygon fill="#94a3b8" stroke="#94a3b8" points="1532.47,-555.71 1543.06,-555.53 1534.67,-549.07 1532.47,-555.71"></polygon>
</g>
<!-- Schedule&#45;&gt;Course -->
<!-- Schedule&#45;&gt;Course -->
<g id="edge20" class="edge">
<title>Schedule:e-&gt;Course:w</title>
<path fill="none" stroke="#94a3b8" d="M972.5,-332C1040.31,-332 949.4,-617.37 998.61,-650.81"></path>
<polygon fill="#94a3b8" stroke="#94a3b8" points="997.47,-654.12 1008.05,-653.57 999.43,-647.41 997.47,-654.12"></polygon>
</g>
</g>
</g></svg>